<svg width="456" height="416" viewBox="0 0 456 416" fill="none" xmlns="http://www.w3.org/2000/svg">
<path d="M404.392 298.441L442.439 269.767L399.428 291.268L424.241 248.814L391.16 286.86L400.148 243.648L404.392 244.608L400.599 241.429L402.52 232.019L435.275 235.773L392.811 221.984L436.37 214.301H387.261L425.307 185.627L382.296 207.138L401.732 173.874L421.485 178.464L406.467 165.817L407.158 164.636L406.275 165.654L404.354 164.088L446.261 168.89C446.415 168.918 446.574 168.886 446.705 168.799C446.836 168.712 446.928 168.578 446.961 168.425C446.995 168.271 446.968 168.111 446.885 167.977C446.803 167.844 446.672 167.747 446.52 167.709L409.866 155.801L446.587 149.3C446.738 149.273 446.874 149.191 446.967 149.069C447.06 148.947 447.104 148.795 447.091 148.642C447.078 148.489 447.008 148.347 446.895 148.243C446.782 148.139 446.635 148.081 446.482 148.081H404.392L437.705 122.979C437.832 122.904 437.924 122.781 437.961 122.638C437.998 122.495 437.977 122.343 437.901 122.215C437.826 122.088 437.704 121.996 437.56 121.959C437.417 121.922 437.265 121.943 437.138 122.019L399.428 140.878L421.322 103.428C421.406 103.312 421.441 103.167 421.418 103.026C421.396 102.884 421.318 102.758 421.202 102.674C421.086 102.59 420.942 102.555 420.8 102.578C420.659 102.6 420.532 102.678 420.448 102.794L391.16 136.49L401.829 85.1534C401.844 85.0536 401.823 84.9517 401.769 84.8661C401.716 84.7805 401.633 84.7168 401.537 84.6867C401.441 84.6565 401.337 84.6618 401.244 84.7016C401.151 84.7414 401.076 84.8131 401.031 84.9037L381.231 132.63L379.512 87.4965C379.512 87.3055 379.436 87.1223 379.301 86.9872C379.166 86.8522 378.982 86.7763 378.791 86.7763C378.6 86.7763 378.417 86.8522 378.282 86.9872C378.147 87.1223 378.071 87.3055 378.071 87.4965L374.614 133.705L354.516 89.1578C354.454 89.0202 354.342 88.9112 354.203 88.853C354.063 88.7947 353.907 88.7915 353.766 88.8439C353.624 88.8964 353.508 89.0006 353.44 89.1355C353.373 89.2704 353.359 89.426 353.402 89.5707L367.441 138.766L332.343 100.479L361.602 145.392L361.516 146.506L319.59 116.593L354.698 149.867L319.312 133.484C319.281 133.465 319.248 133.453 319.213 133.447C319.177 133.441 319.141 133.442 319.107 133.45C319.072 133.458 319.039 133.473 319.01 133.493C318.981 133.514 318.956 133.54 318.937 133.571C318.918 133.601 318.906 133.635 318.9 133.67C318.894 133.705 318.895 133.741 318.903 133.776C318.911 133.811 318.926 133.843 318.946 133.873C318.967 133.902 318.993 133.926 319.024 133.945L340.784 148.628L342.262 157.328L322.423 154.745C322.343 154.73 322.26 154.747 322.192 154.793C322.125 154.839 322.078 154.909 322.063 154.99C322.048 155.07 322.065 155.153 322.111 155.22C322.157 155.288 322.228 155.335 322.308 155.35L342.915 161.179L343.876 166.604L325.803 169.572L320.042 161.332L345.969 213.716L306.185 187.721L343.213 221.984L302.161 205.179L339.353 225.297L300.836 221.964L338.287 230.809L312.273 236.743L339.391 234.669L321.194 246.797L352.998 238.241L363.254 274.492C363.254 277.373 363.341 280.897 363.389 284.671L332.314 250.773L363.043 297.874L319.6 266.886L360.277 306.181L314.184 281.012L356.388 309.484L318.217 304.52L355.284 315.006L325.602 319.961L356.388 318.866L338.191 330.995L363.657 324.138C363.6 328.94 363.533 334.557 363.465 340.108C363.389 346.964 363.312 353.551 363.264 357.978H352.297C351.446 357.982 350.61 358.205 349.87 358.625C349.13 359.046 348.511 359.65 348.072 360.379L336.261 380.046C335.336 381.599 334.73 383.322 334.48 385.113C334.229 386.904 334.338 388.726 334.801 390.474L340.054 410.016C340.45 411.497 341.323 412.807 342.538 413.742C343.753 414.678 345.242 415.187 346.776 415.192H400.551C402.083 415.182 403.57 414.671 404.784 413.736C405.998 412.801 406.872 411.495 407.273 410.016L412.516 390.474C412.982 388.727 413.093 386.903 412.842 385.112C412.591 383.321 411.984 381.598 411.057 380.046L399.255 360.379C398.817 359.647 398.196 359.041 397.454 358.62C396.712 358.2 395.873 357.978 395.02 357.978H381.576C381.576 347.742 381.691 333.971 381.759 319.567L421.409 328.795L404.316 314.458L452.33 319.97L409.904 306.181L453.472 298.499L404.392 298.441ZM402.395 231.99L399.034 240.094L387.261 230.261L402.395 231.99ZM399.591 173.326L381.816 193.771C381.749 184.091 381.682 175.237 381.634 169.139L399.591 173.326ZM364.445 249.832C363.792 246.576 364.166 239.922 364.55 235.312L373.913 237.502C373.337 239.278 373.164 241.448 372.886 245.069C372.809 246.029 372.732 247.124 372.626 248.334C372.329 251.916 371.762 252.674 370.831 253.922C369.776 255.282 368.928 256.79 368.315 258.397C367.542 261.146 367.037 263.963 366.807 266.809L366.049 265.129C365.93 259.995 365.394 254.879 364.445 249.832ZM370.984 259.435C371.507 258.054 372.232 256.76 373.135 255.593C374.374 253.923 375.152 252.617 375.498 248.516C375.603 247.297 375.68 246.211 375.757 245.232C376.035 241.631 376.189 239.586 376.717 238.097L378.004 238.395L374.614 284.094L369.141 271.937C369.736 265.849 370.379 260.99 370.984 259.463V259.435ZM374.057 202.653L378.859 179.712C378.859 184.926 378.945 190.851 378.983 196.997L374.057 202.653ZM375.891 170.455L364.138 198.822L363.177 173.902L375.891 170.455ZM362.131 146.131L363.033 147.514L362.159 146.89L362.131 146.131ZM359.384 174.94L357.521 199.907L350.31 177.35L359.384 174.94ZM349.042 173.422L347.573 168.861L356.417 168.544L349.042 173.422ZM341.168 148.849L356.388 159.124L343.904 157.501L341.168 148.849ZM345.306 161.813L355.284 164.636L346.641 166.076L345.306 161.813ZM325.803 169.591L344.269 168.928L345.441 175.833L338.248 180.634L345.931 178.579L350.396 204.9L325.803 169.591ZM361.631 235.898C361.266 240.613 360.969 246.999 361.631 250.389C362.073 252.588 362.419 255.008 362.678 257.581L353.853 238.001L361.631 235.898ZM366.135 357.959C366.135 353.571 366.26 346.964 366.337 340.117C366.404 334.25 366.481 328.287 366.538 323.341L378.916 320.009C378.849 334.24 378.782 347.857 378.734 357.959H366.135ZM382.056 239.403L397.824 243.062L382.008 281.118C382.076 265.753 382.124 253.077 382.124 247.902C382.124 245.731 382.114 242.802 382.095 239.403H382.056Z" fill="#C7C7C7"/>
<path d="M340.688 82.4358C361.106 82.4358 377.658 65.8834 377.658 45.465C377.658 25.0466 361.106 8.49426 340.688 8.49426C320.269 8.49426 303.717 25.0466 303.717 45.465C303.717 65.8834 320.269 82.4358 340.688 82.4358Z" stroke="#263238" stroke-miterlimit="10" stroke-linecap="round"/>
<path d="M340.688 78.8443C359.122 78.8443 374.067 63.8999 374.067 45.465C374.067 27.0301 359.122 12.0857 340.688 12.0857C322.253 12.0857 307.308 27.0301 307.308 45.465C307.308 63.8999 322.253 78.8443 340.688 78.8443Z" stroke="#263238" stroke-miterlimit="10" stroke-linecap="round"/>
<path d="M353.93 49.575L340.688 45.465L356.369 22.7352" stroke="#263238" stroke-miterlimit="10" stroke-linecap="round"/>
<path d="M340.687 47.3376C341.722 47.3376 342.56 46.4992 342.56 45.4651C342.56 44.4309 341.722 43.5925 340.687 43.5925C339.653 43.5925 338.815 44.4309 338.815 45.4651C338.815 46.4992 339.653 47.3376 340.687 47.3376Z" fill="#263238" stroke="#263238" stroke-miterlimit="10"/>
<path d="M327.772 35.2381C331.511 35.2381 334.542 32.207 334.542 28.4681C334.542 24.7291 331.511 21.6981 327.772 21.6981C324.033 21.6981 321.002 24.7291 321.002 28.4681C321.002 32.207 324.033 35.2381 327.772 35.2381Z" stroke="#263238" stroke-miterlimit="10" stroke-linecap="round"/>
<path d="M330.672 40.1835C330.672 40.4703 330.587 40.7507 330.427 40.9891C330.268 41.2276 330.042 41.4134 329.777 41.5232C329.512 41.6329 329.22 41.6617 328.939 41.6057C328.658 41.5498 328.399 41.4117 328.196 41.2089C327.994 41.0061 327.856 40.7477 327.8 40.4664C327.744 40.1852 327.772 39.8936 327.882 39.6286C327.992 39.3637 328.178 39.1372 328.416 38.9779C328.655 38.8186 328.935 38.7335 329.222 38.7335C329.412 38.7335 329.601 38.771 329.777 38.8439C329.953 38.9168 330.112 39.0236 330.247 39.1582C330.382 39.2929 330.489 39.4527 330.561 39.6286C330.634 39.8046 330.672 39.9931 330.672 40.1835V40.1835Z" stroke="#263238" stroke-miterlimit="10" stroke-linecap="round"/>
<path d="M30.0083 44.985H220.537V414.721H18.629V44.985H24.2947" stroke="#263238" stroke-miterlimit="10"/>
<path d="M214.42 52.9841H153.231V406.713H214.42V52.9841Z" stroke="#263238" stroke-miterlimit="10"/>
<path d="M146.231 52.9841H88.5469V406.713H146.231V52.9841Z" stroke="#263238" stroke-miterlimit="10"/>
<path d="M81.5562 149.195V142.77" stroke="#263238" stroke-miterlimit="10"/>
<path d="M81.5561 137.057V52.9841H24.746V406.713H81.5561V157.05" stroke="#263238" stroke-miterlimit="10"/>
<path d="M115.099 414.798V192.724C115.099 191.573 115.325 190.433 115.766 189.37C116.207 188.307 116.853 187.341 117.667 186.528C118.481 185.714 119.448 185.07 120.512 184.63C121.575 184.19 122.715 183.965 123.866 183.966H267.226C269.549 183.966 271.776 184.889 273.419 186.531C275.061 188.174 275.984 190.401 275.984 192.724V414.452" stroke="#263238" stroke-width="4" stroke-linejoin="round"/>
<path d="M284.934 224.413L280.708 221.532C274.586 217.18 269.817 211.189 266.948 204.247L263.385 196.027H257.787L254.262 204.247C251.393 211.189 246.624 217.18 240.502 221.532L236.276 224.413C235.058 225.312 234.073 226.49 233.405 227.849C232.736 229.207 232.404 230.707 232.435 232.22H288.679C288.721 230.715 288.403 229.221 287.752 227.863C287.101 226.505 286.134 225.322 284.934 224.413ZM262.194 228.763H238.024C238.024 226.171 242.163 223.77 243.786 222.454L246.666 220.082C251.036 216.374 254.326 211.558 256.192 206.139L258.632 199.484H262.473L264.912 206.139C266.778 211.56 270.072 216.377 274.447 220.082L277.328 222.454C278.97 223.77 283.023 226.171 283.023 228.763H262.194Z" fill="white" stroke="#263238" stroke-linecap="round" stroke-linejoin="round"/>
<path d="M260.591 195.893V189.862C260.591 189.862 264.038 187.279 264.038 183.544C264.038 179.808 261.157 178.368 258.007 179.52" stroke="#263238" stroke-linecap="round" stroke-linejoin="round"/>
<path d="M244.525 215.31C244.525 215.31 250.93 222.694 258.987 222.819C267.533 222.953 277.578 215.473 277.578 215.473C279.868 217.449 282.363 219.174 285.02 220.62C289.495 223.059 292.443 226.631 294.786 232.825C297.408 239.729 303.179 258.503 303.179 258.503L286.547 259.31L288.823 297.049H233.491L237.237 258.637H221.133C221.133 258.637 226.481 233.267 228.93 228.389C231.379 223.51 244.525 215.31 244.525 215.31Z" fill="white" stroke="#263238" stroke-linecap="round" stroke-linejoin="round"/>
<path d="M237.237 258.599L238.082 238.433" stroke="#263238" stroke-linecap="round" stroke-linejoin="round"/>
<path d="M286.547 259.31L285.241 239.729" stroke="#263238" stroke-linecap="round" stroke-linejoin="round"/>
<path d="M276.32 224.413L272.095 221.532C265.973 217.18 261.203 211.189 258.334 204.247L254.81 196.027H249.211L245.687 204.247C242.821 211.191 238.051 217.183 231.926 221.532L227.701 224.413C226.483 225.312 225.498 226.49 224.83 227.849C224.161 229.207 223.829 230.707 223.86 232.22H280.104C280.141 230.712 279.818 229.216 279.16 227.857C278.501 226.499 277.528 225.318 276.32 224.413ZM253.581 228.763H229.41C229.41 226.171 233.549 223.77 235.172 222.454L238.101 220.082C242.47 216.374 245.76 211.558 247.627 206.139L250.066 199.484H253.907L256.346 206.139C258.212 211.56 261.507 216.377 265.882 220.082L268.763 222.454C270.405 223.77 274.457 226.171 274.457 228.763H253.581Z" fill="white" stroke="#263238" stroke-linecap="round" stroke-linejoin="round"/>
<path d="M251.977 195.893V189.862C251.977 189.862 255.424 187.279 255.424 183.544C255.424 179.808 252.543 178.368 249.394 179.52" stroke="#263238" stroke-linecap="round" stroke-linejoin="round"/>
<path d="M235.911 215.31C235.911 215.31 242.317 222.694 250.373 222.819C258.92 222.953 268.964 215.473 268.964 215.473C271.254 217.449 273.749 219.174 276.406 220.62C280.891 223.059 283.829 226.631 286.172 232.825C288.794 239.729 294.575 258.503 294.575 258.503L277.933 259.31L280.209 297.049H224.878L228.623 258.637H212.49C212.49 258.637 217.829 233.2 220.269 228.398C222.708 223.597 235.911 215.31 235.911 215.31Z" fill="#6B6B6B" stroke="#263238" stroke-linecap="round" stroke-linejoin="round"/>
<path d="M228.623 258.599L229.468 238.433" stroke="#263238" stroke-linecap="round" stroke-linejoin="round"/>
<path d="M277.933 259.31L276.627 239.729" stroke="#263238" stroke-linecap="round" stroke-linejoin="round"/>
<path d="M228.729 204.651L243.718 205.371V269.575H225.915L228.729 204.651Z" fill="white" stroke="#263238" stroke-linecap="round" stroke-linejoin="round"/>
<path d="M261.186 223.098L256.961 220.217C250.836 215.865 246.063 209.874 243.19 202.932L239.676 194.712H234.077L230.553 202.932C227.684 209.873 222.914 215.865 216.792 220.217L212.567 223.098C211.349 223.996 210.364 225.175 209.696 226.533C209.027 227.892 208.695 229.391 208.726 230.905H264.969C265.007 229.396 264.684 227.9 264.026 226.542C263.367 225.184 262.394 224.003 261.186 223.098ZM238.418 227.438H214.276C214.276 224.845 218.406 222.445 220.038 221.119L222.919 218.757C227.291 215.049 230.585 210.233 232.454 204.814L234.893 198.159H238.735L241.174 204.814C243.056 210.255 246.374 215.086 250.777 218.795L253.705 221.158C255.338 222.483 259.4 224.884 259.4 227.476L238.418 227.438Z" fill="white" stroke="#263238" stroke-linecap="round" stroke-linejoin="round"/>
<path d="M236.843 194.577V188.547C236.843 188.547 240.29 185.954 240.29 182.218C240.29 178.483 237.409 177.052 234.26 178.195" stroke="#263238" stroke-linecap="round" stroke-linejoin="round"/>
<path d="M228.729 204.651L235.23 261.95L243.219 202.932C243.219 202.932 256.826 216.856 261.301 219.256C265.776 221.657 269.848 224.96 271.067 231.462C272.287 237.963 278.749 303.07 278.749 303.07L263.692 303.886L265.075 340.751H204.318L207.977 302.34H193.736C193.736 302.34 202.686 231.961 205.125 227.073C207.564 222.185 228.729 204.651 228.729 204.651Z" fill="white" stroke="#263238" stroke-linecap="round" stroke-linejoin="round"/>
<path d="M228.729 204.651L236.718 265.763L234.797 268.308L216.994 215.54C216.994 215.54 222.631 206.475 228.729 204.651Z" fill="white" stroke="#263238" stroke-linecap="round" stroke-linejoin="round"/>
<path d="M243.219 202.932L232.301 283.595L257.066 214.954C257.066 214.954 243.114 201.578 243.219 202.932Z" fill="white" stroke="#263238" stroke-linecap="round" stroke-linejoin="round"/>
<path d="M205.125 227.025C205.125 227.025 193.496 283.557 190.951 296.914C188.406 310.272 187.11 331.878 187.11 331.878L209.36 332.512L215.717 237.156" fill="white"/>
<path d="M205.125 227.025C205.125 227.025 193.496 283.557 190.951 296.914C188.406 310.272 187.11 331.878 187.11 331.878L209.36 332.512L215.717 237.156" stroke="#263238" stroke-linecap="round" stroke-linejoin="round"/>
<path d="M269.588 227.025C269.588 227.025 281.217 283.557 283.762 296.914C286.307 310.272 287.603 331.878 287.603 331.878L265.354 332.512L258.996 237.156" fill="white"/>
<path d="M269.588 227.025C269.588 227.025 281.217 283.557 283.762 296.914C286.307 310.272 287.603 331.878 287.603 331.878L265.354 332.512L258.996 237.156" stroke="#263238" stroke-linecap="round" stroke-linejoin="round"/>
<path d="M232.272 283.557V341.413" stroke="#263238" stroke-linecap="round" stroke-linejoin="round"/>
<path d="M237.457 224.413L233.232 221.532C227.113 217.177 222.344 211.187 219.471 204.247L215.947 196.027H210.378L206.853 204.247C203.981 211.187 199.212 217.177 193.093 221.532L188.858 224.413C187.639 225.312 186.655 226.49 185.986 227.849C185.318 229.207 184.985 230.707 185.017 232.22H241.299C241.33 230.707 240.997 229.207 240.329 227.849C239.661 226.49 238.676 225.312 237.457 224.413ZM214.718 228.763H190.567C190.567 226.171 194.706 223.77 196.329 222.454L199.209 220.082C203.582 216.377 206.873 211.559 208.735 206.139L211.175 199.484H215.016L217.464 206.139C219.327 211.559 222.618 216.377 226.99 220.082L229.919 222.454C231.552 223.77 235.604 226.171 235.604 228.763H214.718Z" fill="white" stroke="#263238" stroke-linecap="round" stroke-linejoin="round"/>
<path d="M213.134 195.893V189.862C213.134 189.862 216.581 187.279 216.581 183.544C216.581 179.808 213.7 178.368 210.55 179.52" stroke="#263238" stroke-linecap="round" stroke-linejoin="round"/>
<path d="M205.019 205.966L211.53 224.682L219.491 204.247C219.491 204.247 233.098 218.171 237.573 220.572C242.048 222.973 246.11 226.267 247.329 232.777C248.549 239.288 255.059 304.376 255.059 304.376L240.012 305.192L241.366 342.009H180.609L184.268 303.598H170.036C170.036 303.598 178.986 233.2 181.425 228.398C183.864 223.597 205.019 205.966 205.019 205.966Z" fill="#263238" stroke="#263238" stroke-linecap="round" stroke-linejoin="round"/>
<path d="M198.921 210.441L202.58 230.377L210.31 217.365L205.432 203.527L198.921 210.441Z" fill="white" stroke="#263238" stroke-linecap="round" stroke-linejoin="round"/>
<path d="M219.491 204.247L212.75 217.768L219.664 231.193L225.368 208.818L219.491 204.247Z" fill="white" stroke="#263238" stroke-linecap="round" stroke-linejoin="round"/>
<path d="M240.012 305.24L236.756 243.398" stroke="#263238" stroke-linecap="round" stroke-linejoin="round"/>
<path d="M184.268 303.617L189.972 243.398" stroke="#263238" stroke-linecap="round" stroke-linejoin="round"/>
<path d="M215.438 224.413L211.203 221.532C205.084 217.177 200.315 211.187 197.443 204.247L193.918 196.027H188.33L184.805 204.247C181.933 211.187 177.164 217.177 171.045 221.532L166.819 224.413C165.6 225.311 164.614 226.489 163.946 227.848C163.277 229.207 162.945 230.706 162.978 232.22H219.212C219.251 230.712 218.929 229.217 218.273 227.859C217.616 226.501 216.644 225.319 215.438 224.413ZM192.699 228.763H168.529C168.529 226.171 172.658 223.77 174.29 222.454L177.219 220.082C181.591 216.377 184.882 211.559 186.745 206.139L189.184 199.484H193.025L195.464 206.139C197.327 211.559 200.618 216.377 204.99 220.082L207.919 222.454C209.552 223.77 213.604 226.171 213.604 228.763H192.699Z" fill="white" stroke="#263238" stroke-linecap="round" stroke-linejoin="round"/>
<path d="M191.095 195.893V189.862C191.095 189.862 194.543 187.279 194.543 183.544C194.543 179.808 191.662 178.368 188.502 179.52" stroke="#263238" stroke-linecap="round" stroke-linejoin="round"/>
<path d="M182.971 205.966L189.444 224.682L197.404 204.247C197.404 204.247 211.011 218.171 215.486 220.572C219.961 222.973 224.033 226.267 225.252 232.777C226.472 239.288 232.935 304.376 232.935 304.376L217.964 305.221L219.327 342.038H158.561L162.229 303.627H147.988C147.988 303.627 156.938 233.2 159.377 228.398C161.816 223.597 182.971 205.966 182.971 205.966Z" fill="#6B6B6B" stroke="#263238" stroke-linecap="round" stroke-linejoin="round"/>
<path d="M176.873 210.441L180.532 230.377L188.262 217.365L183.384 203.527L176.873 210.441Z" fill="white" stroke="#263238" stroke-linecap="round" stroke-linejoin="round"/>
<path d="M197.443 204.247L190.701 217.768L197.625 231.193L203.319 208.818L197.443 204.247Z" fill="white" stroke="#263238" stroke-linecap="round" stroke-linejoin="round"/>
<path d="M217.964 305.24L214.708 243.398" stroke="#263238" stroke-linecap="round" stroke-linejoin="round"/>
<path d="M162.229 303.617L167.924 243.398" stroke="#263238" stroke-linecap="round" stroke-linejoin="round"/>
<path d="M195.109 224.413L190.884 221.532C184.762 217.18 179.992 211.189 177.123 204.247L173.599 196.027H168L164.476 204.247C161.607 211.189 156.838 217.18 150.715 221.532L146.49 224.413C145.272 225.312 144.287 226.49 143.619 227.849C142.95 229.207 142.618 230.707 142.649 232.22H198.893C198.931 230.712 198.607 229.216 197.949 227.857C197.291 226.499 196.317 225.318 195.109 224.413ZM172.37 228.763H148.2C148.2 226.171 152.329 223.77 153.961 222.454L156.89 220.082C161.252 216.371 164.536 211.555 166.397 206.139L168.836 199.484H172.677L175.116 206.139C176.982 211.56 180.277 216.377 184.652 220.082L187.533 222.454C189.175 223.77 193.227 226.171 193.227 228.763H172.37Z" fill="white" stroke="#263238" stroke-linecap="round" stroke-linejoin="round"/>
<path d="M170.766 195.893V189.862C170.766 189.862 174.213 187.279 174.213 183.544C174.213 179.808 171.333 178.368 168.183 179.52" stroke="#263238" stroke-linecap="round" stroke-linejoin="round"/>
<path d="M154.701 215.31C154.701 215.31 161.106 222.694 169.162 222.819C177.709 222.953 187.753 215.473 187.753 215.473C190.046 217.45 192.545 219.175 195.205 220.62C199.68 223.059 202.628 226.631 204.971 232.825C207.593 239.729 213.364 258.503 213.364 258.503L196.732 259.31L199.008 297.049H143.667L147.412 258.637H131.26C131.26 258.637 136.628 233.2 139.058 228.398C141.487 223.597 154.701 215.31 154.701 215.31Z" fill="#A1A1A1" stroke="#263238" stroke-linecap="round" stroke-linejoin="round"/>
<path d="M147.412 258.599L148.257 238.433" stroke="#263238" stroke-linecap="round" stroke-linejoin="round"/>
<path d="M196.722 259.31L195.416 239.729" stroke="#263238" stroke-linecap="round" stroke-linejoin="round"/>
<path d="M179.898 224.413L175.673 221.532C169.551 217.18 164.781 211.189 161.912 204.247L158.388 196.027H152.79L149.265 204.247C146.397 211.189 141.627 217.18 135.505 221.532L131.279 224.413C130.061 225.312 129.076 226.49 128.408 227.849C127.739 229.207 127.407 230.707 127.438 232.22H183.682C183.72 230.712 183.396 229.216 182.738 227.857C182.08 226.499 181.106 225.318 179.898 224.413ZM157.159 228.763H132.989C132.989 226.171 137.118 223.77 138.75 222.454L141.631 220.082C146.006 216.377 149.301 211.56 151.167 206.139L153.606 199.484H157.447L159.886 206.139C161.753 211.558 165.043 216.374 169.412 220.082L172.341 222.454C173.973 223.77 178.035 226.171 178.035 228.763H157.159Z" fill="white" stroke="#263238" stroke-linecap="round" stroke-linejoin="round"/>
<path d="M155.555 195.893V189.862C155.555 189.862 159.003 187.279 159.003 183.544C159.003 179.808 156.122 178.368 152.972 179.52" stroke="#263238" stroke-linecap="round" stroke-linejoin="round"/>
<path d="M139.509 215.31C139.509 215.31 145.914 222.694 153.971 222.819C162.517 222.953 172.562 215.473 172.562 215.473C174.852 217.449 177.347 219.174 180.004 220.62C184.479 223.059 187.417 226.631 189.77 232.825C192.392 239.729 198.163 258.503 198.163 258.503L181.531 259.31L183.807 297.049H128.456L132.201 258.637H116.049C116.049 258.637 121.398 233.267 123.837 228.389C126.276 223.51 139.509 215.31 139.509 215.31Z" fill="white" stroke="#263238" stroke-linecap="round" stroke-linejoin="round"/>
<path d="M132.201 258.599L133.046 238.433" stroke="#263238" stroke-linecap="round" stroke-linejoin="round"/>
<path d="M181.512 259.31L180.206 239.729" stroke="#263238" stroke-linecap="round" stroke-linejoin="round"/>
<path d="M196.165 414.798V192.724C196.165 191.573 195.939 190.433 195.498 189.37C195.057 188.307 194.411 187.341 193.597 186.528C192.783 185.714 191.816 185.07 190.753 184.63C189.689 184.19 188.549 183.965 187.398 183.966H44.038C41.7153 183.966 39.4878 184.889 37.8454 186.531C36.203 188.174 35.2803 190.401 35.2803 192.724V414.452" stroke="#263238" stroke-width="4" stroke-linejoin="round"/>
<path d="M26.3016 224.413L30.5268 221.532C36.649 217.18 41.4187 211.189 44.2876 204.247L47.8119 196.027H53.4103L56.9249 204.247C59.7938 211.189 64.5636 217.18 70.6857 221.532L74.9109 224.413C76.1293 225.312 77.1141 226.49 77.7825 227.849C78.4509 229.207 78.7834 230.707 78.7521 232.22H22.4893C22.4547 230.709 22.7827 229.211 23.4461 227.853C24.1094 226.495 25.0886 225.315 26.3016 224.413ZM49.041 228.763H73.2497C73.2497 226.171 69.1109 223.77 67.488 222.454L64.6072 220.082C60.2099 216.383 56.8923 211.566 55.0044 206.139L52.5652 199.484H48.7241L46.285 206.139C44.4189 211.56 41.1246 216.377 36.7494 220.082L33.8686 222.454C32.2265 223.77 28.1742 226.171 28.1742 228.763H49.041Z" fill="white" stroke="#263238" stroke-linecap="round" stroke-linejoin="round"/>
<path d="M50.6447 195.893V189.862C50.6447 189.862 47.1973 187.279 47.1973 183.544C47.1973 179.808 50.0781 178.368 53.2278 179.52" stroke="#263238" stroke-linecap="round" stroke-linejoin="round"/>
<path d="M66.7102 215.31C66.7102 215.31 60.3051 222.694 52.2484 222.819C43.7019 222.953 33.6574 215.473 33.6574 215.473C31.3612 217.45 28.8598 219.176 26.196 220.62C21.7211 223.059 18.773 226.631 16.43 232.825C13.8084 239.729 8.03711 258.503 8.03711 258.503L24.6691 259.31L22.3933 297.049H77.7438L73.9987 258.637H90.1506C90.1506 258.637 84.773 233.2 82.3531 228.398C79.9332 223.597 66.7102 215.31 66.7102 215.31Z" fill="white" stroke="#263238" stroke-linecap="round" stroke-linejoin="round"/>
<path d="M73.9987 258.599L73.1537 238.433" stroke="#263238" stroke-linecap="round" stroke-linejoin="round"/>
<path d="M24.6884 259.31L25.9943 239.729" stroke="#263238" stroke-linecap="round" stroke-linejoin="round"/>
<path d="M34.9154 224.413L39.1406 221.532C45.2627 217.18 50.0325 211.189 52.9014 204.247L56.4256 196.027H62.0241L65.5675 204.247C68.4364 211.189 73.2062 217.18 79.3283 221.532L83.5535 224.413C84.7719 225.312 85.7566 226.49 86.425 227.849C87.0935 229.207 87.426 230.707 87.3946 232.22H31.1031C31.0684 230.709 31.3965 229.211 32.0598 227.853C32.7231 226.495 33.7023 225.315 34.9154 224.413ZM57.6548 228.763H81.825C81.825 226.171 77.6862 223.77 76.0633 222.454L73.1825 220.082C68.8099 216.375 65.5161 211.559 63.6469 206.139L61.2078 199.484H57.3667L54.9276 206.139C53.0614 211.56 49.7671 216.377 45.392 220.082L42.5112 222.454C40.8691 223.77 36.8167 226.171 36.8167 228.763H57.6548Z" fill="white" stroke="#263238" stroke-linecap="round" stroke-linejoin="round"/>
<path d="M59.2584 195.893V189.862C59.2584 189.862 55.811 187.279 55.811 183.544C55.811 179.808 58.6919 178.368 61.8416 179.52" stroke="#263238" stroke-linecap="round" stroke-linejoin="round"/>
<path d="M75.3239 215.31C75.3239 215.31 68.9188 222.694 60.8621 222.819C52.3156 222.953 42.2711 215.473 42.2711 215.473C39.984 217.448 37.4923 219.174 34.8385 220.62C30.354 223.059 27.4156 226.631 25.0725 232.825C22.4509 239.729 16.67 258.503 16.67 258.503L33.3117 259.31L30.9974 297.049H86.3287L82.5836 258.637H98.7355C98.7355 258.637 93.4156 233.2 90.9669 228.398C88.5181 223.597 75.3239 215.31 75.3239 215.31Z" fill="#6B6B6B" stroke="#263238" stroke-linecap="round" stroke-linejoin="round"/>
<path d="M82.6124 258.599L81.7673 238.433" stroke="#263238" stroke-linecap="round" stroke-linejoin="round"/>
<path d="M33.3021 259.31L34.6081 239.729" stroke="#263238" stroke-linecap="round" stroke-linejoin="round"/>
<path d="M82.5068 204.651L67.5168 205.371V269.575H85.3204L82.5068 204.651Z" fill="white" stroke="#263238" stroke-linecap="round" stroke-linejoin="round"/>
<path d="M50.0493 223.098L54.2745 220.217C60.3995 215.865 65.1725 209.874 68.0449 202.932L71.5595 194.712H77.158L80.6822 202.932C83.5511 209.873 88.3209 215.865 94.443 220.217L98.6682 223.098C99.8866 223.996 100.871 225.175 101.54 226.533C102.208 227.892 102.541 229.391 102.509 230.905H46.237C46.2023 229.393 46.5304 227.896 47.1937 226.537C47.857 225.179 48.8362 224 50.0493 223.098ZM72.7887 227.438H96.9589C96.9589 224.845 92.8297 222.445 91.1973 221.119L88.3164 218.757C83.9442 215.049 80.6504 210.233 78.7808 204.814L76.3417 198.159H72.5006L70.0615 204.814C68.1797 210.255 64.8617 215.086 60.4587 218.795L57.5299 221.158C55.8974 222.483 51.8354 224.884 51.8354 227.476L72.7887 227.438Z" fill="white" stroke="#263238" stroke-linecap="round" stroke-linejoin="round"/>
<path d="M74.3925 194.577V188.547C74.3925 188.547 70.9451 185.954 70.9451 182.218C70.9451 178.483 73.8259 177.052 76.9756 178.195" stroke="#263238" stroke-linecap="round" stroke-linejoin="round"/>
<path d="M82.5068 204.651L76.0057 261.95L68.045 202.932C68.045 202.932 54.4378 216.856 49.9629 219.256C45.488 221.657 41.4164 224.96 40.1969 231.462C38.9773 237.963 32.5146 303.07 32.5146 303.07L47.5718 303.886L46.1602 340.751H106.917L103.258 302.34H117.499C117.499 302.34 108.55 231.961 106.11 227.073C103.671 222.185 82.5068 204.651 82.5068 204.651Z" fill="white" stroke="#263238" stroke-linecap="round" stroke-linejoin="round"/>
<path d="M82.5067 204.651L74.5172 265.763L76.4378 268.308L94.2414 215.54C94.2414 215.54 88.6141 206.475 82.5067 204.651Z" fill="white" stroke="#263238" stroke-linecap="round" stroke-linejoin="round"/>
<path d="M68.045 202.932L78.9634 283.595L54.1689 214.954C54.1689 214.954 68.1218 201.578 68.045 202.932Z" fill="white" stroke="#263238" stroke-linecap="round" stroke-linejoin="round"/>
<path d="M106.11 227.025C106.11 227.025 117.739 283.557 120.284 296.914C122.829 310.272 124.125 331.878 124.125 331.878L101.876 332.512L95.5186 237.156" fill="white"/>
<path d="M106.11 227.025C106.11 227.025 117.739 283.557 120.284 296.914C122.829 310.272 124.125 331.878 124.125 331.878L101.876 332.512L95.5186 237.156" stroke="#263238" stroke-linecap="round" stroke-linejoin="round"/>
<path d="M41.6469 227.025C41.6469 227.025 30.0371 283.557 27.4732 296.914C24.9093 310.272 23.6321 331.878 23.6321 331.878L45.8818 332.512L52.2388 237.156" fill="white"/>
<path d="M41.6469 227.025C41.6469 227.025 30.0371 283.557 27.4732 296.914C24.9093 310.272 23.6321 331.878 23.6321 331.878L45.8818 332.512L52.2388 237.156" stroke="#263238" stroke-linecap="round" stroke-linejoin="round"/>
<path d="M78.9634 283.557V341.413" stroke="#263238" stroke-linecap="round" stroke-linejoin="round"/>
<path d="M73.7586 224.413L77.9839 221.532C84.1031 217.177 88.8721 211.187 91.7447 204.247L95.2689 196.027H100.858L104.382 204.247C107.254 211.19 112.027 217.181 118.152 221.532L122.378 224.413C123.596 225.312 124.581 226.49 125.249 227.849C125.918 229.207 126.25 230.707 126.219 232.22H69.9463C69.9117 230.709 70.2398 229.211 70.9031 227.853C71.5664 226.495 72.5456 225.315 73.7586 224.413ZM96.4981 228.763H120.668C120.668 226.171 116.529 223.77 114.907 222.454L111.978 220.082C107.609 216.374 104.318 211.558 102.452 206.139L100.013 199.484H96.1716L93.7228 206.139C91.8602 211.559 88.5692 216.377 84.1969 220.082L81.316 222.454C79.6836 223.77 75.6312 226.171 75.6312 228.763H96.4981Z" fill="white" stroke="#263238" stroke-linecap="round" stroke-linejoin="round"/>
<path d="M98.1017 195.893V189.862C98.1017 189.862 94.6543 187.279 94.6543 183.544C94.6543 179.808 97.5351 178.368 100.685 179.52" stroke="#263238" stroke-linecap="round" stroke-linejoin="round"/>
<path d="M106.216 205.966L99.7053 224.682L91.7446 204.247C91.7446 204.247 78.1375 218.171 73.6626 220.572C69.1877 222.973 65.1257 226.267 63.9061 232.777C62.6866 239.288 56.2239 304.376 56.2239 304.376L71.2715 305.192L69.9175 342.009H130.674L127.016 303.598H141.257C141.257 303.598 132.249 233.2 129.81 228.398C127.371 223.597 106.216 205.966 106.216 205.966Z" fill="#263238" stroke="#263238" stroke-linecap="round" stroke-linejoin="round"/>
<path d="M112.314 210.441L108.655 230.377L100.925 217.365L105.813 203.527L112.314 210.441Z" fill="white" stroke="#263238" stroke-linecap="round" stroke-linejoin="round"/>
<path d="M91.7447 204.247L98.4859 217.768L91.5719 231.193L85.8678 208.818L91.7447 204.247Z" fill="white" stroke="#263238" stroke-linecap="round" stroke-linejoin="round"/>
<path d="M71.2235 305.24L74.4789 243.398" stroke="#263238" stroke-linecap="round" stroke-linejoin="round"/>
<path d="M126.968 303.617L121.264 243.398" stroke="#263238" stroke-linecap="round" stroke-linejoin="round"/>
<path d="M95.7971 224.413L100.032 221.532C106.151 217.177 110.92 211.187 113.793 204.247L117.317 196.027H122.906L126.43 204.247C129.303 211.187 134.072 217.177 140.191 221.532L144.416 224.413C145.636 225.311 146.621 226.489 147.29 227.848C147.958 229.207 148.29 230.706 148.257 232.22H91.9848C91.9502 230.709 92.2782 229.211 92.9415 227.853C93.6048 226.495 94.584 225.315 95.7971 224.413ZM118.537 228.763H142.707C142.707 226.171 138.578 223.77 136.945 222.454L134.016 220.082C129.644 216.377 126.353 211.559 124.49 206.139L122.051 199.484H118.21L115.771 206.139C113.908 211.559 110.617 216.377 106.245 220.082L103.364 222.454C101.732 223.77 97.6792 226.171 97.6792 228.763H118.537Z" fill="white" stroke="#263238" stroke-linecap="round" stroke-linejoin="round"/>
<path d="M120.14 195.893V189.862C120.14 189.862 116.693 187.279 116.693 183.544C116.693 179.808 119.574 178.368 122.733 179.52" stroke="#263238" stroke-linecap="round" stroke-linejoin="round"/>
<path d="M128.264 205.966L121.753 224.682L113.793 204.247C113.793 204.247 100.186 218.171 95.7106 220.572C91.2357 222.973 87.1641 226.267 85.9446 232.777C84.725 239.288 78.2623 304.376 78.2623 304.376L93.3195 305.192L91.9559 342.009H152.722L149.054 303.598H163.295C163.295 303.598 154.297 233.2 151.858 228.398C149.419 223.597 128.264 205.966 128.264 205.966Z" fill="#6B6B6B" stroke="#263238" stroke-linecap="round" stroke-linejoin="round"/>
<path d="M134.362 210.441L130.703 230.377L122.973 217.365L127.851 203.527L134.362 210.441Z" fill="white" stroke="#263238" stroke-linecap="round" stroke-linejoin="round"/>
<path d="M113.793 204.247L120.534 217.768L113.61 231.193L107.916 208.818L113.793 204.247Z" fill="white" stroke="#263238" stroke-linecap="round" stroke-linejoin="round"/>
<path d="M93.2715 305.24L96.5268 243.398" stroke="#263238" stroke-linecap="round" stroke-linejoin="round"/>
<path d="M149.006 303.617L143.312 243.398" stroke="#263238" stroke-linecap="round" stroke-linejoin="round"/>
<path d="M116.126 224.413L120.351 221.532C126.474 217.18 131.243 211.189 134.112 204.247L137.636 196.027H143.235L146.759 204.247C149.628 211.189 154.398 217.18 160.52 221.532L164.745 224.413C165.963 225.312 166.948 226.49 167.617 227.849C168.285 229.207 168.618 230.707 168.586 232.22H112.314C112.279 230.709 112.607 229.211 113.271 227.853C113.934 226.495 114.913 225.315 116.126 224.413ZM138.866 228.763H163.036C163.036 226.171 158.907 223.77 157.274 222.454L154.345 220.082C149.976 216.374 146.686 211.558 144.819 206.139L142.39 199.484H138.549L136.11 206.139C134.243 211.56 130.949 216.377 126.574 220.082L123.693 222.454C122.051 223.77 117.999 226.171 117.999 228.763H138.866Z" fill="white" stroke="#263238" stroke-linecap="round" stroke-linejoin="round"/>
<path d="M140.469 195.893V189.862C140.469 189.862 137.022 187.279 137.022 183.544C137.022 179.808 139.903 178.368 143.052 179.52" stroke="#263238" stroke-linecap="round" stroke-linejoin="round"/>
<path d="M156.535 215.31C156.535 215.31 150.13 222.694 142.073 222.819C133.526 222.953 123.482 215.473 123.482 215.473C121.192 217.449 118.697 219.174 116.04 220.62C111.565 223.059 108.617 226.631 106.274 232.825C103.652 239.729 97.8809 258.503 97.8809 258.503L114.513 259.31L112.237 297.049H167.568L163.823 258.637H179.975C179.975 258.637 174.626 233.2 172.158 228.398C169.691 223.597 156.535 215.31 156.535 215.31Z" fill="#A1A1A1" stroke="#263238" stroke-linecap="round" stroke-linejoin="round"/>
<path d="M163.823 258.599L162.978 238.433" stroke="#263238" stroke-linecap="round" stroke-linejoin="round"/>
<path d="M114.513 259.31L115.819 239.729" stroke="#263238" stroke-linecap="round" stroke-linejoin="round"/>
<path d="M131.337 224.413L135.562 221.532C141.684 217.18 146.454 211.189 149.323 204.247L152.847 196.027H158.446L161.97 204.247C164.839 211.189 169.609 217.18 175.731 221.532L179.956 224.413C181.174 225.312 182.159 226.49 182.827 227.849C183.496 229.207 183.828 230.707 183.797 232.22H127.525C127.49 230.709 127.818 229.211 128.481 227.853C129.145 226.495 130.124 225.315 131.337 224.413ZM154.076 228.763H178.247C178.247 226.171 174.117 223.77 172.485 222.454L169.604 220.082C165.229 216.377 161.935 211.56 160.069 206.139L157.629 199.484H153.788L151.349 206.139C149.483 211.558 146.192 216.374 141.823 220.082L138.894 222.454C137.262 223.77 133.2 226.171 133.2 228.763H154.076Z" fill="white" stroke="#263238" stroke-linecap="round" stroke-linejoin="round"/>
<path d="M155.68 195.893V189.862C155.68 189.862 152.233 187.279 152.233 183.544C152.233 179.808 155.114 178.368 158.263 179.52" stroke="#263238" stroke-linecap="round" stroke-linejoin="round"/>
<path d="M171.746 215.31C171.746 215.31 165.34 222.694 157.284 222.819C148.737 222.953 138.693 215.473 138.693 215.473C136.403 217.449 133.908 219.174 131.251 220.62C126.776 223.059 123.837 226.631 121.485 232.825C118.873 239.729 113.092 258.503 113.092 258.503L129.724 259.31L127.448 297.049H182.779L179.034 258.637H195.205C195.205 258.637 189.837 233.2 187.398 228.398C184.959 223.597 171.746 215.31 171.746 215.31Z" fill="white" stroke="#263238" stroke-linecap="round" stroke-linejoin="round"/>
<path d="M179.034 258.599L178.189 238.433" stroke="#263238" stroke-linecap="round" stroke-linejoin="round"/>
<path d="M129.724 259.31L131.03 239.729" stroke="#263238" stroke-linecap="round" stroke-linejoin="round"/>
<path d="M256.154 230.261C256.154 230.261 254.185 266.819 255.03 276.355C255.876 285.89 258.689 300.823 258.968 304.76C259.246 308.697 262.348 319.097 264.028 325.886C265.709 332.675 277.53 367.226 280.055 373.689C282.581 380.151 282.763 399.155 282.763 399.155C282.763 399.155 271.509 408.153 267.86 410.122C264.211 412.09 262.511 411.245 263.058 413.78C263.606 416.315 283.023 414.059 287.526 414.059C292.03 414.059 298.771 414.904 299.05 411.812C299.328 408.72 295.679 398.877 294.834 394.373C293.989 389.869 293.816 368.906 292.971 356.25C292.126 343.593 292.136 334.605 287.91 323.917C283.685 313.229 279.479 300.573 279.479 300.573L290.743 238.961L256.154 230.261Z" fill="white" stroke="#263238" stroke-linecap="round" stroke-linejoin="round"/>
<path d="M281.976 390.522C281.448 386.067 279.239 377.299 278.298 372.796C276.867 365.997 265.718 332.627 264.028 325.876C262.338 319.126 259.227 308.716 258.968 304.75C258.708 300.784 255.876 285.91 255.03 276.345C254.185 266.781 256.154 230.252 256.154 230.252L290.724 238.971L279.479 300.554C279.479 300.554 283.695 313.21 287.91 323.898C292.126 334.586 292.136 343.584 292.971 356.231C293.624 366.006 293.605 382.389 294.258 389.552C290.317 390.936 286.085 391.27 281.976 390.522Z" fill="#263238" stroke="#263238" stroke-linecap="round" stroke-linejoin="round"/>
<path d="M263.078 413.732C262.511 411.197 264.201 412.042 267.879 410.074C270.673 408.576 277.885 402.968 281.141 400.404C282.156 400.69 283.037 401.326 283.628 402.199C284.221 403.168 284.691 404.207 285.03 405.291L297.379 403.496C298.339 406.933 299.232 410.218 299.088 411.764C298.81 414.856 292.059 414.011 287.565 414.011C283.071 414.011 263.635 416.296 263.078 413.732Z" fill="#666666" stroke="#263238" stroke-linecap="round" stroke-linejoin="round"/>
<path d="M316.613 234.765C316.613 234.765 314.645 252.482 308.182 268.509C301.719 284.536 295.468 307.496 295.468 307.496C295.468 307.496 307.097 320.892 309.632 332.982C312.167 345.072 313.473 367.216 313.8 370.02C314.126 372.824 316.613 382.398 320.522 386.345C324.43 390.292 327.551 391.146 325.87 394.219C324.19 397.292 314.904 409.123 313.214 411.091C311.524 413.06 304.495 414.462 301.402 414.462C298.31 414.462 300.279 414.462 301.681 409.661C303.083 404.859 304.773 391.665 304.773 387.449C304.773 383.234 299.712 367.485 294.095 357.921C288.477 348.356 280.027 322.486 277.501 316.302C274.976 310.118 271.595 305.057 271.595 301.12C271.595 297.183 274.687 259.502 275.254 252.751C275.821 246 276.656 238.414 276.656 238.414L317.429 231.097L316.613 234.765Z" fill="white" stroke="#263238" stroke-linecap="round" stroke-linejoin="round"/>
<path d="M301.431 414.452C298.339 414.452 300.308 414.452 301.71 409.651C302.958 405.416 304.427 394.575 304.744 389.216C305.589 388.487 308.768 385.903 310.707 386.873C312.044 387.543 313.203 388.52 314.088 389.725L319.225 384.741C319.624 385.313 320.067 385.852 320.55 386.355C324.487 390.292 327.58 391.156 325.899 394.229C324.219 397.302 314.933 409.133 313.243 411.101C311.553 413.07 304.523 414.452 301.431 414.452Z" fill="#666666" stroke="#263238" stroke-linecap="round" stroke-linejoin="round"/>
<path d="M275.283 252.761C275.84 246.039 276.685 238.424 276.685 238.424L320.272 230.665L321.232 237.387C321.232 237.387 320.512 249.64 314.049 265.676C307.587 281.713 295.477 307.506 295.477 307.506C295.477 307.506 307.106 320.902 309.642 332.992C312.177 345.082 313.483 367.226 313.809 370.03C314.179 372.457 314.78 374.843 315.605 377.155C311.95 379.363 307.85 380.727 303.601 381.15C301.767 374.428 298.089 364.672 294.133 357.94C288.506 348.337 280.065 322.506 277.539 316.321C275.014 310.137 271.634 305.077 271.634 301.139C271.634 297.202 274.716 259.511 275.283 252.761Z" fill="#263238" stroke="#263238" stroke-linecap="round" stroke-linejoin="round"/>
<path d="M288.17 346.186C283.282 333.943 275.83 320.259 273.372 310.896C269.972 297.999 275.292 252.76 275.292 252.76" stroke="#E040FB" stroke-linecap="round" stroke-linejoin="round"/>
<path d="M291.233 353.888L289.697 350.046" stroke="#E040FB" stroke-linecap="round" stroke-linejoin="round"/>
<path d="M209.484 131.938C209.484 131.938 202.398 128.308 200.65 127.819C198.902 127.329 197.894 128.933 198.576 129.394C199.257 129.854 200.371 130.709 200.371 130.709C200.371 130.709 197.154 130.613 197.942 131.669L199.517 133.734C199.517 133.734 196.636 134.281 197.375 135.559C198.054 136.457 199.008 137.109 200.093 137.412C200.093 137.412 197.164 138.209 198.46 139.38C199.757 140.552 203.607 140.341 203.607 140.341C204.647 142.345 206.07 144.126 207.794 145.584C209.583 146.895 211.701 147.683 213.911 147.86L217.887 151.96L223.207 145.622L209.484 131.938Z" fill="white" stroke="#263238" stroke-linecap="round" stroke-linejoin="round"/>
<path d="M150.331 126.445L155.584 123.93C163.208 120.167 169.618 114.333 174.079 107.096L179.514 98.5205L180.11 98.6165L185.189 99.4328L185.775 99.5288L188.243 109.381C190.217 117.657 194.484 125.209 200.554 131.17L204.808 135.251C206.007 136.48 206.894 137.979 207.395 139.621C207.896 141.263 207.997 143.002 207.689 144.691L178.727 140.024L173.647 139.208L144.685 134.541C144.908 132.838 145.538 131.213 146.521 129.804C147.503 128.395 148.81 127.243 150.331 126.445ZM175.01 135.414L178.535 135.981L202.09 139.822C202.551 136.941 198.355 133.484 196.761 131.708L193.88 128.529C189.652 123.587 186.836 117.595 185.727 111.187L184.191 103.293L183.778 103.235L180.263 102.669L179.841 102.602L175.913 109.612C172.843 115.347 168.285 120.15 162.719 123.517L159.022 125.639C156.948 126.82 151.973 128.779 151.503 131.679L175.01 135.414Z" fill="white" stroke="#263238" stroke-linecap="round" stroke-linejoin="round"/>
<path d="M182.721 98.8855L183.816 92.1635C183.816 92.1635 180.417 88.6489 181.089 84.4813C181.761 80.3137 185.247 79.1998 188.579 81.0627" stroke="#263238" stroke-linecap="round" stroke-linejoin="round"/>
<path d="M142.226 165.241L131.222 162.571C131.222 162.571 133.594 141.339 137.771 134.08C141.516 127.569 145.453 124.093 150.907 122.172C154.147 121.035 157.254 119.55 160.174 117.745C160.174 117.745 170.075 127.944 179.677 129.336C188.723 130.642 197.231 123.526 197.231 123.526C197.231 123.526 210.55 135.05 212.404 140.955C214.257 146.861 215.678 176.246 215.678 176.246L197.587 173.365L202.743 217.105L202.263 217.019L202.743 218.229C202.743 218.229 196.914 215.348 185.631 216.452C174.348 217.557 161.672 219.545 156.314 218.143C150.955 216.741 134.362 210.46 134.362 210.46L142.226 165.241Z" fill="url(#paint0_linear)" stroke="#263238" stroke-linecap="round" stroke-linejoin="round"/>
<path d="M197.587 173.336L196.348 163.704" stroke="#263238" stroke-linecap="round" stroke-linejoin="round"/>
<path d="M142.226 165.241L146.653 142.002" stroke="#263238" stroke-linecap="round" stroke-linejoin="round"/>
<path d="M159.137 121.414C158.387 126.178 158.008 130.994 158.004 135.818" stroke="#263238" stroke-linecap="round" stroke-linejoin="round"/>
<path d="M156.88 121.98C156.068 124.647 155.502 127.382 155.19 130.152" stroke="#263238" stroke-linecap="round" stroke-linejoin="round"/>
<path d="M188.618 154.293C188.829 155.187 189.059 156.07 189.299 156.934" stroke="#263238" stroke-linecap="round" stroke-linejoin="round"/>
<path d="M184.786 131.842C184.786 131.842 185.746 140.927 187.667 150.366" stroke="#263238" stroke-linecap="round" stroke-linejoin="round"/>
<path d="M187.888 129.874C189.024 133.014 189.967 136.221 190.711 139.477" stroke="#263238" stroke-linecap="round" stroke-linejoin="round"/>
<path d="M151.935 206.081L159.531 149.723" stroke="#263238" stroke-linecap="round" stroke-linejoin="round"/>
<path d="M150.773 214.638L151.224 211.344" stroke="#263238" stroke-linecap="round" stroke-linejoin="round"/>
<path d="M170.353 129.115L168.807 156.934" stroke="#263238" stroke-linecap="round" stroke-linejoin="round"/>
<path d="M223.053 143.894C223.053 143.894 217.858 137.71 215.803 136.73C213.748 135.751 207.103 134.454 204.616 132.985C202.129 131.516 201.437 132.294 202.859 134.329C204.28 136.365 209.312 138.391 209.312 138.391C209.312 138.391 211.463 143.26 213.95 144.729L219.615 148.081L223.053 143.894Z" fill="white" stroke="#263238" stroke-linecap="round" stroke-linejoin="round"/>
<path d="M273.718 143.462C273.718 143.462 263.807 143.462 262.348 146.083C260.888 148.705 254.483 164.444 251.862 168.861C249.24 173.278 249.24 174.392 249.24 174.392L222.727 141.973L213.45 149.876C213.45 149.876 244.333 201.155 246.666 202.029C249 202.903 263.27 191.245 265.017 190.371C266.765 189.497 276.387 147.543 276.387 147.543C276.387 147.543 278.663 145.209 273.718 143.462Z" fill="#666666" stroke="#263238" stroke-linecap="round" stroke-linejoin="round"/>
<path d="M272.546 147.831L305.196 139.38C305.196 139.38 310.151 166.768 310.151 178.752C310.151 190.736 318.457 236.004 318.457 236.004C318.457 236.004 293.835 243.436 280.142 243.436C266.448 243.436 257.71 238.481 257.71 238.481C257.71 238.481 264.432 215.434 264.701 202.951C264.969 190.467 263.241 173.518 264.701 163.579C265.583 157.632 268.33 152.118 272.546 147.831Z" fill="white" stroke="#263238" stroke-linecap="round" stroke-linejoin="round"/>
<path d="M269.367 187.673L279.566 201.952" stroke="#263238" stroke-linecap="round" stroke-linejoin="round"/>
<path d="M279.95 207.301L281.352 209.346" stroke="#263238" stroke-linecap="round" stroke-linejoin="round"/>
<path d="M272.431 196.344L278.269 204.862" stroke="#263238" stroke-linecap="round" stroke-linejoin="round"/>
<path d="M263.807 155.119C263.807 155.119 262.934 158.327 261.772 163.57C260.61 168.813 260.898 172.308 261.474 184.84C262.05 197.372 261.474 200.857 257.393 210.479C253.312 220.101 242.115 244.781 242.115 244.781L252.313 254.105C252.313 254.105 261.474 230.578 264.969 216.011C268.465 201.443 270.348 182.91 271.5 173C273.571 155.189 280.123 145.814 280.123 145.814L282.158 142.319C279.416 143.114 276.573 143.505 273.718 143.481C271.163 143.403 268.611 143.697 266.141 144.355" fill="#666666"/>
<path d="M263.807 155.119C263.807 155.119 262.934 158.327 261.772 163.57C260.61 168.813 260.898 172.308 261.474 184.84C262.05 197.372 261.474 200.857 257.393 210.479C253.312 220.101 242.115 244.781 242.115 244.781L252.313 254.105C252.313 254.105 261.474 230.578 264.969 216.011C268.465 201.443 270.348 182.91 271.5 173C273.571 155.189 280.123 145.814 280.123 145.814L282.158 142.319C279.416 143.114 276.573 143.505 273.718 143.481C271.163 143.403 268.611 143.697 266.141 144.355" stroke="#263238" stroke-linecap="round" stroke-linejoin="round"/>
<path d="M302.555 138.218C302.555 138.218 288.91 149.049 286 157.5C283.09 165.95 283.916 186.04 284.492 191.802C285.068 197.564 293.374 258.426 293.374 258.426C293.374 258.426 312.58 252.597 320.474 249.678C328.367 246.759 330.96 243.561 330.96 243.561C330.96 243.561 316.728 195.806 316.728 194.635C316.728 193.463 329.068 140.254 327.032 139.092C324.996 137.93 302.555 138.218 302.555 138.218Z" fill="#666666" stroke="#263238" stroke-linecap="round" stroke-linejoin="round"/>
<path d="M271.288 136.212C271.288 136.212 271.691 145.67 269.876 150.107C269.031 152.466 267.654 154.598 265.853 156.339C265.853 156.339 273.9 152.316 276.925 149.099C279.217 146.423 281.24 143.528 282.965 140.456L277.53 130.997L271.288 136.212Z" fill="#263238" stroke="#263238" stroke-linecap="round" stroke-linejoin="round"/>
<path d="M259.784 95.342C258.745 98.6627 258.022 102.074 257.623 105.531C257.345 109.66 258.833 110.534 258.584 113.011C258.334 115.489 254.627 119.848 255.175 121.778C255.722 123.709 259.016 124.803 259.016 124.803C259.016 124.803 261.503 134.406 262.329 136.922C263.154 139.438 266.727 138.574 270.309 137.469C272.926 136.613 275.492 135.603 277.991 134.445L281.294 142.424L300.02 133.34L292.04 101.651C292.04 101.651 281.025 93.1141 274.14 93.1141L259.784 95.342Z" fill="white" stroke="#263238" stroke-linecap="round" stroke-linejoin="round"/>
<path d="M277.962 134.445L282.485 131.439L279.796 137.076L277.962 134.445Z" fill="#263238" stroke="#263238" stroke-linecap="round" stroke-linejoin="round"/>
<path d="M261.224 114.231C261.224 115.45 261.676 116.439 262.233 116.439C262.789 116.439 263.193 115.479 263.193 114.231C263.193 112.982 262.751 112.012 262.233 112.012C261.714 112.012 261.224 113.002 261.224 114.231Z" fill="#263238"/>
<path d="M265.651 109.794C265.651 109.794 263.03 105.166 259.611 107.989" stroke="#263238" stroke-linecap="round" stroke-linejoin="round"/>
<path d="M268.263 125.293C268.263 125.293 265.546 128.769 262.434 127.108" stroke="#263238" stroke-linecap="round" stroke-linejoin="round"/>
<path d="M290.004 147.639C290.004 147.639 289.457 148.129 285.779 149.454C280.622 151.297 278.932 150.059 278.932 150.059C278.066 146.463 277.383 142.825 276.886 139.16C276.685 136.144 277.539 136.624 282.965 135.76C289.024 134.8 298.195 131.074 299.607 131.074C301.018 131.074 301.883 130.93 301.883 132.745C301.883 134.56 303.697 141.195 303.697 141.195C299.365 143.804 294.776 145.963 290.004 147.639Z" fill="white" stroke="#263238" stroke-linecap="round" stroke-linejoin="round"/>
<path d="M285.126 113.789C285.126 113.789 281.544 113.789 279.892 112.685C278.784 111.769 278.008 110.513 277.684 109.112C277.684 109.112 265.843 106.078 260.619 99.5096C255.395 92.9413 251.804 92.3459 254.281 89.3211C256.759 86.2962 273.833 81.3315 279.345 79.1325C284.857 76.9335 293.154 80.5153 300.836 86.8051C308.518 93.095 308.278 93.9592 309.373 101.949C310.467 109.938 317.91 137.748 317.91 137.748C303.003 140.953 302.619 143.279 300.836 143C296.92 142.388 306.656 132.369 285.126 113.789Z" fill="#263238" stroke="#263238" stroke-linecap="round" stroke-linejoin="round"/>
<path d="M281.544 116.266C281.544 116.266 283.743 104.974 288.976 108.584C294.21 112.195 287.872 124.832 285.952 124.554C284.031 124.275 282.37 122.076 282.37 122.076" fill="white"/>
<path d="M281.544 116.266C281.544 116.266 283.743 104.974 288.976 108.584C294.21 112.195 287.872 124.832 285.952 124.554C284.031 124.275 282.37 122.076 282.37 122.076" stroke="#263238" stroke-linecap="round" stroke-linejoin="round"/>
<path d="M384.553 153.593C384.553 153.593 392.946 151.912 394.905 151.912C396.864 151.912 397.421 153.833 396.576 154.15C395.731 154.466 394.338 154.995 394.338 154.995C394.338 154.995 397.699 155.83 396.576 156.665L394.338 158.346C394.338 158.346 397.142 159.748 396.019 160.862C395.056 161.595 393.878 161.99 392.667 161.985C392.667 161.985 395.462 163.666 393.781 164.501C392.101 165.337 388.183 163.944 388.183 163.944C386.517 165.71 384.525 167.136 382.315 168.141C380.079 168.974 377.655 169.167 375.315 168.698L369.976 171.742L366.336 163.628L384.553 153.593Z" fill="white" stroke="#263238" stroke-linecap="round" stroke-linejoin="round"/>
<path d="M316.248 139.092C316.248 139.092 323.825 137.057 327.032 139.092C330.24 141.128 331.113 158.298 331.113 158.298L340.716 180.73L367.815 162.369L376.554 175.189C376.554 175.189 341.878 206.955 338.969 208.117C337.985 208.621 336.852 208.751 335.78 208.483C334.708 208.214 333.77 207.566 333.14 206.658C331.978 205.208 310.996 169.658 310.996 169.658" fill="#666666"/>
<path d="M316.248 139.092C316.248 139.092 323.825 137.057 327.032 139.092C330.24 141.128 331.113 158.298 331.113 158.298L340.716 180.73L367.815 162.369L376.554 175.189C376.554 175.189 341.878 206.955 338.969 208.117C337.985 208.621 336.852 208.751 335.78 208.483C334.708 208.214 333.77 207.566 333.14 206.658C331.978 205.208 310.996 169.658 310.996 169.658" stroke="#263238" stroke-linecap="round" stroke-linejoin="round"/>
<path d="M399.418 171.089L382.411 171.905V244.752H402.606L399.418 171.089Z" fill="#666666" stroke="#263238" stroke-linecap="round" stroke-linejoin="round"/>
<path d="M362.591 192.013L367.393 188.7C374.33 183.774 379.741 176.996 383.007 169.139L387.002 159.815H393.349L397.344 169.139C400.61 176.996 406.021 183.774 412.958 188.7L417.76 192.013C419.135 193.039 420.245 194.378 420.997 195.92C421.749 197.462 422.12 199.162 422.081 200.877H358.27C358.231 199.162 358.602 197.462 359.354 195.92C360.106 194.378 361.216 193.039 362.591 192.013ZM388.394 196.949H415.82C415.82 194.011 411.124 191.284 409.271 189.785L405.948 187.106C400.992 182.896 397.261 177.43 395.145 171.281L392.37 163.733H387.981L385.206 171.281C383.09 177.43 379.358 182.896 374.403 187.106L371.08 189.785C369.227 191.284 364.627 194.011 364.627 196.949H388.394Z" fill="white" stroke="#263238" stroke-linecap="round" stroke-linejoin="round"/>
<path d="M390.209 159.662V152.815C390.209 152.815 386.301 149.876 386.301 145.642C386.301 141.407 389.556 139.774 393.147 141.08" stroke="#263238" stroke-linecap="round" stroke-linejoin="round"/>
<path d="M399.418 171.089L392.062 236.081L383.036 169.13C383.036 169.13 367.604 184.926 362.524 187.702C357.444 190.477 352.825 194.164 351.443 201.549C350.06 208.933 342.675 282.789 342.675 282.789L359.749 283.749L358.212 325.511H427.113L422.964 281.905H439.116C439.116 281.905 428.966 202.048 426.191 196.507C423.415 190.967 399.418 171.089 399.418 171.089Z" fill="url(#paint1_linear)" stroke="#263238" stroke-linecap="round" stroke-linejoin="round"/>
<path d="M399.418 171.089L390.353 240.421L392.514 243.302L412.68 183.448C412.68 183.448 406.332 173.163 399.418 171.089Z" fill="#263238" stroke="#263238" stroke-linecap="round" stroke-linejoin="round"/>
<path d="M383.007 169.139L395.395 260.616L367.268 182.718C367.268 182.718 383.093 167.603 383.007 169.139Z" fill="#263238" stroke="#263238" stroke-linecap="round" stroke-linejoin="round"/>
<path d="M426.191 196.479C426.191 196.479 439.394 260.616 442.275 275.759C445.156 290.903 446.606 315.428 446.606 315.428L421.36 316.149L414.149 207.963" fill="url(#paint2_linear)"/>
<path d="M426.191 196.479C426.191 196.479 439.394 260.616 442.275 275.759C445.156 290.903 446.606 315.428 446.606 315.428L421.36 316.149L414.149 207.963" stroke="#263238" stroke-linecap="round" stroke-linejoin="round"/>
<path d="M420.909 317.935H447.173C447.772 317.935 448.258 317.449 448.258 316.85V309.379C448.258 308.779 447.772 308.294 447.173 308.294H420.909C420.31 308.294 419.824 308.779 419.824 309.379V316.85C419.824 317.449 420.31 317.935 420.909 317.935Z" fill="#263238" stroke="#263238" stroke-linecap="round" stroke-linejoin="round"/>
<path d="M353.056 196.479C353.056 196.479 339.862 260.616 336.981 275.759C334.1 290.903 332.65 315.428 332.65 315.428L357.896 316.149L365.107 207.963" fill="url(#paint3_linear)"/>
<path d="M353.056 196.479C353.056 196.479 339.862 260.616 336.981 275.759C334.1 290.903 332.65 315.428 332.65 315.428L357.896 316.149L365.107 207.963" stroke="#263238" stroke-linecap="round" stroke-linejoin="round"/>
<path d="M331.891 317.935H358.155C358.754 317.935 359.24 317.449 359.24 316.85V309.379C359.24 308.779 358.754 308.294 358.155 308.294H331.891C331.292 308.294 330.806 308.779 330.806 309.379V316.85C330.806 317.449 331.292 317.935 331.891 317.935Z" fill="#263238" stroke="#263238" stroke-linecap="round" stroke-linejoin="round"/>
<path d="M395.395 260.616V325.127" stroke="#263238" stroke-linecap="round" stroke-linejoin="round"/>
<path d="M370.821 161.822C373.481 159.527 376.765 154.342 377.965 153.861C380.068 152.997 386.79 152.085 389.354 150.76C391.918 149.434 392.571 150.26 391.025 152.219C389.479 154.178 384.38 155.897 384.38 155.897C384.38 155.897 381.951 160.622 379.387 161.947L377.687 162.859" fill="white"/>
<path d="M370.821 161.822C373.481 159.527 376.765 154.342 377.965 153.861C380.068 152.997 386.79 152.085 389.354 150.76C391.918 149.434 392.571 150.26 391.025 152.219C389.479 154.178 384.38 155.897 384.38 155.897C384.38 155.897 381.951 160.622 379.387 161.947L377.687 162.859" stroke="#263238" stroke-linecap="round" stroke-linejoin="round"/>
<path d="M1.22876 414.721H455.441" stroke="#263238" stroke-linecap="round" stroke-linejoin="round"/>
<defs>
<linearGradient id="paint0_linear" x1="121.944" y1="56.897" x2="273.016" y2="115.113" gradientUnits="userSpaceOnUse">
<stop offset="0.343099" stop-color="#DA22FF"/>
<stop offset="1" stop-color="#9733EE"/>
</linearGradient>
<linearGradient id="paint1_linear" x1="332.081" y1="74.8045" x2="515.433" y2="126.851" gradientUnits="userSpaceOnUse">
<stop offset="0.343099" stop-color="#DA22FF"/>
<stop offset="1" stop-color="#9733EE"/>
</linearGradient>
<linearGradient id="paint2_linear" x1="410.583" y1="124.297" x2="476.24" y2="132.493" gradientUnits="userSpaceOnUse">
<stop offset="0.343099" stop-color="#DA22FF"/>
<stop offset="1" stop-color="#9733EE"/>
</linearGradient>
<linearGradient id="paint3_linear" x1="329.085" y1="124.297" x2="394.741" y2="132.493" gradientUnits="userSpaceOnUse">
<stop offset="0.343099" stop-color="#DA22FF"/>
<stop offset="1" stop-color="#9733EE"/>
</linearGradient>
</defs>
</svg>
